<svg width="1426" height="1024" viewBox="0 0 1426 1024" fill="none" xmlns="http://www.w3.org/2000/svg">
<g filter="url(#filter0_f)">
<path d="M850.85 655.329C865.041 648.516 858.241 642.945 861.781 632.633C863.071 628.876 864.522 626.026 864.559 621.931C864.581 619.45 863.424 612.956 864.661 610.535C870.402 599.308 887.581 597.991 895.686 590.031C901.542 584.279 902.721 574.436 907.951 568.017C910.013 565.487 915.313 562.839 916.739 560.051C921.202 551.322 924.638 542.967 929.705 534.692C934.42 526.991 942.35 521.381 947.321 514.067C951.404 508.06 944.932 498.474 950.866 492.646C956.804 486.814 966.912 485.173 973.103 480.107C976.24 477.541 979.147 472.602 981.902 470.801C993.458 463.246 1017.45 471.292 1030.14 474.586C1043.64 478.091 1055.52 473.756 1068.3 480.292C1078.29 481.018 1081.14 491.648 1087.63 493.873C1094.37 496.187 1101.97 498.939 1109.02 500.769C1115.46 502.442 1121.47 502.761 1127.08 505.624C1132.51 508.401 1141.91 505.126 1147.17 507.816C1149.79 509.158 1149.64 511.117 1153.16 512.563C1158.89 514.915 1169.6 510.697 1174.6 514.096C1177.56 516.104 1178.78 521.195 1180.55 524.206C1186.81 534.859 1198.85 529.81 1204.47 547.214C1206.56 553.675 1198.19 615.83 1195.1 620.876C1192.52 625.091 1185.81 673.654 1187.24 675.109C1188.16 676.051 1190.56 677.143 1191.9 677.832" stroke="#BECCED"/>
<path d="M1194.41 622.208C1222.87 637.389 1213.64 634.229 1225.6 658.69" stroke="#BECCED"/>
<path d="M1203.67 561.953C1205.8 573.525 1208.05 583.321 1216.14 591.563C1218.76 594.229 1223.44 594.898 1225.47 598.351C1229.08 604.495 1231.43 611.908 1234.67 618.546" stroke="#BECCED"/>
<path d="M1195.87 535.07C1207.89 537.681 1227.83 531.924 1232.64 546.797C1235.39 555.304 1225.9 565.238 1227.07 568.871C1228.33 572.765 1237.81 577.773 1240.38 580.388C1243.65 583.721 1241.55 596.468 1251.57 603.282" stroke="#BECCED"/>
<path d="M1163.7 607.856C1167.07 606.212 1167.34 602.051 1169.15 598.519C1171.21 594.494 1175.12 590.543 1175.96 586.512C1178.01 576.712 1177.8 566.477 1180.25 557.053C1181.46 552.41 1178.58 546.034 1180.39 541.634C1182.19 537.236 1183.98 532.785 1183.2 527.581C1186.55 527.365 1189.02 524.52 1190.61 522.954C1194.42 519.211 1197.58 515.02 1200.78 510.308C1202.09 508.381 1205.95 507.891 1207.52 506.346C1208.76 505.131 1218.55 502.217 1214.95 500.379" stroke="#BECCED"/>
<path d="M1185.63 480.003C1182.09 483.484 1180.48 490.45 1178.79 495.361C1176.54 501.91 1155.59 511.626 1151.84 510.539C1151.3 521.435 1155.65 553.308 1148.71 560.122C1145.19 563.585 1140.96 570.961 1139.18 576.126C1138.44 578.293 1139.58 581.263 1139.12 583.5C1137.83 589.625 1135.52 596.597 1133.58 602.222" stroke="#BECCED"/>
<path d="M1161.3 426.82C1157.81 436.999 1143.86 446.939 1140.93 455.465C1137.72 464.829 1139.52 471.906 1137.36 480.239C1133.18 496.342 1113.45 496.723 1096.98 497.307C1095.69 502.666 1092.4 506.804 1091.48 512.007C1089.5 523.283 1098.07 533.81 1100.58 544.268C1104.25 559.534 1095.81 574.488 1092.17 585.088" stroke="#BECCED"/>
<path d="M1061.69 545.264C1060.4 541.272 1053.97 537.935 1052.41 533.113C1050.5 527.214 1057.13 523.652 1054.55 518.383C1052.49 514.16 1047.79 512.067 1045.93 508.249C1043.54 503.361 1047.47 492.036 1046.78 487.474C1045.42 478.447 1045.86 479.765 1041.53 475.36C1047.09 473.659 1052.12 471.183 1057.01 468.795C1063.46 465.64 1074.67 462.327 1079.25 455.586C1089.96 439.827 1101.48 414.018 1119.93 405" stroke="#BECCED"/>
<path d="M1101.01 422.26C1109.19 422.172 1118.91 421.986 1125.12 425.158" stroke="#BECCED"/>
<path d="M1023.72 517.436C1009.02 509.922 1033.15 479.088 1018.78 469.793C1022.08 468.02 1023.69 465.728 1026.21 464.496C1027.73 463.749 1039.44 433.795 1040.59 430.434C1042.65 424.452 1048.67 417.557 1052.15 412.437C1060.24 400.538 1065.24 404.342 1071.15 387.131C1072.21 384.035 1073.87 383.341 1073.9 379.781" stroke="#BECCED"/>
<path d="M1050.8 413.761C1050.95 405.39 1040.36 397.165 1043.66 387.55C1045.56 382.026 1049.92 377.797 1051.84 372.205" stroke="#BECCED"/>
<path d="M979.872 472.79C977.843 469.922 980.009 464.88 978.627 462.052C977.018 458.759 978.062 456.279 977.371 452.655C976.535 448.272 975.47 444.711 974.127 440.558C970.865 430.473 977.689 417.126 974.428 407.04C971.812 398.951 969.372 390.191 967.282 381.5C966.501 378.252 968.288 369.556 965.391 368.075" stroke="#BECCED"/>
<path d="M972.483 399.651C972.233 396.909 971.009 393.595 972.561 390.936C974.6 387.441 988.979 376.269 992.817 375.028" stroke="#BECCED"/>
<path d="M948.848 493.295C935.529 483.442 928.937 470.741 929.091 453.563" stroke="#BECCED"/>
<path d="M924.27 542.688C928.931 550.865 936.233 553.854 943.579 557.61C946.114 558.907 954.126 559.336 956.316 557.724C957.879 556.573 964.712 548.548 965.78 549.094C967.779 550.116 968.578 556.001 970.394 557.851C976.676 564.246 995.082 553.497 1001.9 558.133C1005.29 560.435 1003.2 564.189 1005.18 566.208C1007.52 568.591 1015.95 569.906 1019.22 571.027C1023.87 572.622 1025.84 576.771 1029.21 578.491" stroke="#BECCED"/>
<path d="M975.744 559.236C975.48 573.17 982.224 572.633 990.324 578.139" stroke="#BECCED"/>
<path d="M924.269 542.691C915.64 539.913 908.855 525.345 906.391 517.725C904.535 511.988 905.12 502.839 902.549 497.578C901.101 494.616 897.252 494.29 895.911 490.145C893.432 482.479 901.388 459.946 892.202 455.249C886.072 452.116 881.16 447.52 875.544 443.703C868.278 438.764 858.154 436.833 850.166 432.749C847.384 431.326 840.317 433.224 838.757 433.987C834.447 436.094 815.854 435.057 811.953 432.406C809.551 430.773 807.447 425.236 806.01 422.296C803.048 416.237 801.401 412.947 801.468 405.495" stroke="#BECCED"/>
<path d="M805.358 420.273C797.58 421.772 789.53 424.005 782.499 427.442" stroke="#BECCED"/>
<path d="M824.673 434.524C816.707 441.397 818.041 461.622 806.966 465.203" stroke="#BECCED"/>
<path d="M846.82 432.044C844.337 434.704 840.88 436.712 839.373 440.022C837.162 444.88 839.248 450.954 838.558 456.105C837.545 463.656 831.73 471.435 828.304 478.137" stroke="#BECCED"/>
<path d="M846.821 432.042C848.4 427.07 851.231 422.05 848.97 416.642C847.608 413.383 841.687 409.227 839.005 406.497C836.981 404.437 836.019 400.231 834.39 397.74C828.857 389.277 821.734 383.981 812.417 380.782" stroke="#BECCED"/>
<path d="M877.554 443.717C878.211 436.433 883.536 430.866 885.774 424.348C890.237 411.348 881.727 408.389 896.777 393.608" stroke="#BECCED"/>
<path d="M903.213 498.253C878.893 495.25 874.709 492.361 859.553 507.247C855.941 510.794 848.124 512.492 844.726 515.829" stroke="#BECCED"/>
<path d="M865.831 554.901C866.945 555.358 868.058 555.815 869.171 556.272C872.07 556.968 875.092 557.275 877.868 558.362C882.474 560.164 886.091 565.26 889.857 567.185C893.755 569.178 900.102 566.025 903.929 567.982C905.404 568.736 907.057 570.928 907.921 571.37" stroke="#BECCED"/>
<path d="M863.278 615.214C854.36 609.991 847.178 601.528 840.666 594.898C838.315 592.505 831.497 594.063 828.623 592.109C817.846 584.784 807.569 577.475 801.365 566.388C796.421 557.554 797.908 544.502 792.244 536.808C789.588 533.2 785.876 531.678 782.931 528.68C780.203 525.902 780.432 521.119 778.335 517.912C773.559 510.607 772.301 500.087 781.903 493.809" stroke="#BECCED"/>
<path d="M794.883 541.523C799.616 540.878 797.408 538.47 798.953 536.197C801.362 532.652 807.22 535.175 809.051 531.594C811.471 526.861 810.853 518.7 815.893 516.236" stroke="#BECCED"/>
<path d="M799.408 560.333C787.686 558.055 773.623 555.409 761.908 555.304" stroke="#BECCED"/>
<path d="M779.854 647.315C795.388 647.666 822.941 641.121 834.778 653.171C837.272 655.711 847.822 651.569 850.855 654.656C852.66 656.494 855.003 659.724 857.499 661.42C859.444 662.741 864.5 662.306 866.866 663.515C873.849 667.085 875.522 681.798 880.734 687.104C884.428 690.865 893.119 690.594 895.41 695.281" stroke="#BECCED"/>
<path d="M863.277 615.214C870.286 618.598 875.112 624.165 882.622 626.114C894.315 629.149 897.616 621.265 906.828 618.286C909.601 617.39 914.751 618.357 917.554 618.383C918.953 618.395 920.508 617.155 922.253 617.754C935.916 622.444 947.202 630.508 959.627 636.861C966.662 640.457 975.151 636.522 982.408 638.406C994.026 641.422 1002.78 649.864 1013.11 654.101C1022.73 658.052 1041.56 654.659 1048.57 661.794C1057.08 670.46 1057.21 690.841 1072.42 693.517C1081.98 695.198 1097.19 701.105 1107.25 697.852C1110.68 696.742 1123.3 695.38 1125.39 693.322C1130.18 688.623 1142.47 686.101 1149.59 686.165" stroke="#BECCED"/>
<path d="M1149.59 686.167C1170.82 692.478 1172.11 703.13 1192.35 703.311" stroke="#BECCED"/>
<path d="M1105.24 697.834C1113.1 694.472 1116.18 686.576 1122.14 681.896C1125.61 679.174 1131.46 676.978 1135.6 675.983C1136.66 675.73 1138.24 672.732 1138.99 671.991C1145.32 665.773 1145.66 658.506 1143.89 649.241C1143.28 646.032 1144.44 643.034 1141.96 640.508" stroke="#BECCED"/>
<path d="M1143.74 665.999C1149.38 660.071 1158.08 661.435 1165.9 661.505" stroke="#BECCED"/>
<path d="M1047.24 660.445C1051.7 660.326 1054.65 656.826 1058.02 655.178C1065.98 651.284 1063.29 637.207 1073.63 633.865C1083.28 630.743 1117.83 639.418 1117.96 624.877" stroke="#BECCED"/>
<path d="M1012.45 652.757C1024.61 648.4 1026.3 634.376 1036.81 627.5C1039.27 625.895 1054.69 622.433 1059 620.325C1062.97 618.385 1066.23 611.303 1071.17 609.707" stroke="#BECCED"/>
<path d="M1432.31 635.07C1427.98 632.857 1410.94 634.963 1408.2 632.172C1404.92 628.831 1391.24 628.664 1388.16 623.947C1379.33 610.438 1365.44 596.403 1359.08 576.757C1351.79 554.205 1376.07 541.867 1372.86 535.315C1372.37 534.301 1369.17 521.662 1370.31 520.543C1373.43 517.481 1403.8 522.129 1401.21 514.116C1400.26 511.18 1391.94 511.531 1390.53 508.657C1387.49 502.434 1395.18 493.593 1392.07 487.217C1384.93 472.62 1390.26 445.282 1384.5 433.516C1381.54 427.448 1377.3 423.648 1375.26 417.344C1374.45 414.842 1377.21 405.798 1375.38 403.936C1373.96 402.485 1371.2 395.736 1368.76 394.491C1363.8 391.952 1357.22 393.559 1352.72 388.984C1341.96 378.032 1373.42 356.234 1366.55 342.179C1360.27 329.337 1343.51 317.797 1338.74 303.045C1333 285.295 1345.01 261.804 1339.27 244.054C1334.84 230.346 1329.71 215.407 1326.25 201.03C1324.79 194.943 1329.16 185.133 1326.44 179.579C1319.37 165.114 1299.1 166.689 1291.9 144.407C1282.39 115.03 1324.23 97.0839 1308.77 57.4047C1303.06 42.7663 1315.47 32.9181 1292.97 25.083C1267.29 22.4099 1229.11 34.395 1207.5 19.704C1193.34 10.0811 1205.37 -6.06748 1177.47 -15.6455" stroke="#BECCED"/>
<path d="M1292.97 25.082C1299.25 28.6153 1304.17 22.9467 1308.94 20.6132C1321.19 14.6269 1317.65 0.637986 1317.77 -12.4911C1317.85 -21.4166 1366.87 -23.0755 1356.92 -43.4275C1345.44 -66.9157 1318.84 -84.7468 1291.75 -71.5074C1287.5 -69.4291 1283.95 -70.0137 1282.21 -64.9562" stroke="#BECCED"/>
<path d="M1293.81 121.454C1260.68 120.157 1244.06 119.109 1216.87 136.882C1205.47 144.338 1206.66 136.747 1198.26 150.462C1197.04 152.462 1194.85 156.337 1194.4 158.486C1193.77 161.48 1195.18 165.044 1194.31 167.967C1190.61 180.488 1195.29 195.128 1198.23 207.348C1199.57 212.951 1199.06 219.948 1199.01 225.843" stroke="#BECCED"/>
<path d="M1195 197.361C1185.39 202.45 1190.24 218.801 1181.02 223.308" stroke="#BECCED"/>
<path d="M1325.37 197.112C1319.49 199.924 1317.56 207.876 1312.45 211.218C1304.9 216.149 1296.8 217.656 1289.57 224.76C1282.28 231.921 1277.66 242.559 1270.38 249.713C1267.83 252.223 1262.69 254.475 1260.83 257.212C1258.53 260.598 1241.68 284.81 1240.67 285.474C1234.92 289.234 1227.97 291.587 1221.16 292.884C1213.09 294.423 1206.13 291.5 1198.86 295.054C1188.58 300.081 1186.4 310.125 1181.58 319.55C1179.96 322.72 1173.47 324.458 1170.14 326.084" stroke="#BECCED"/>
<path d="M1175.87 374.014C1180.65 370.893 1185.58 366.681 1188.31 361.326C1190.39 357.276 1188.89 352.722 1190.32 348.545C1196.68 330.041 1195.8 310.258 1208.36 293.716C1201.25 286.798 1202.35 276 1202.44 266.642" stroke="#BECCED"/>
<path d="M1208.36 293.715C1196.99 294.45 1191.58 284.187 1183.83 280.221" stroke="#BECCED"/>
<path d="M1265.61 252.985C1264 256.404 1262.01 259.779 1260.78 263.371C1258.3 270.598 1266.18 284.76 1268.59 290.937C1269.49 293.252 1272.57 295.378 1274.22 297.624C1277.96 302.708 1287.01 301.391 1292.17 304.896C1295.82 307.376 1298.53 310.78 1303.01 312.104C1312.04 314.771 1335.44 317.133 1343.3 311.992C1333.36 316.539 1321.51 314.856 1311.47 319.765C1292.5 329.039 1305.1 342.938 1300.32 347.634C1295.93 351.945 1289.25 354.68 1283.65 356.491C1276.03 358.955 1260.51 368.317 1253.63 372.814C1247.15 377.051 1243.06 384.868 1235.48 387.82C1222.26 392.971 1216.66 377.082 1208.34 401.324C1207.3 404.349 1205.26 406.764 1204.47 409.823C1202.02 419.246 1205.87 433.634 1214.17 437.879" stroke="#BECCED"/>
<path d="M1252.2 373.751C1250.72 386.53 1243.82 401.439 1248.04 414.482" stroke="#BECCED"/>
<path d="M1356.9 329.181C1357.1 336.221 1352.8 340.652 1348.69 345.699C1337.9 358.946 1333.65 358.949 1319.59 365.822C1314.14 368.485 1321.47 385.75 1317.94 390.932C1315.37 394.722 1308.94 396.782 1305.52 401.25C1296.94 412.487 1288.34 421.63 1279.65 432.305C1277.95 434.385 1274.74 435.716 1272.96 437.46C1270.49 439.892 1265.52 440.625 1262.49 442.107" stroke="#BECCED"/>
<path d="M1374.71 404.715C1370.31 405.838 1369.71 410.811 1366.1 413.171C1362.16 415.746 1353.77 420.39 1351.3 424.415C1347.15 431.2 1344.66 439.564 1340.2 446.122C1338.59 448.497 1328.85 453.23 1325.42 455.471C1314.72 462.465 1303.75 478.437 1299.51 490.792C1298.19 494.617 1294.92 499.749 1297.02 504.043" stroke="#BECCED"/>
<path d="M1310.12 470.029C1309.49 470.181 1308.84 470.286 1308.22 470.486C1303.22 472.104 1296.54 472.892 1292.06 475.081C1289.8 476.188 1285.94 474.225 1283.53 475.005C1280.54 475.971 1280.18 480.037 1276.38 478.733C1273.59 477.773 1273.05 473.942 1270.27 472.99C1267.7 472.108 1265.84 476.869 1264.54 478.153C1260.79 481.83 1249.88 467.058 1248.53 465.684" stroke="#BECCED"/>
<path d="M1260.28 477.643C1250.22 478.582 1247.6 490.448 1239.26 494.521" stroke="#BECCED"/>
<path d="M1324.14 175.766C1332.44 180.273 1347.56 182.519 1352.93 190.72C1357.97 198.436 1361.67 205.088 1369.34 210.303C1376.18 214.95 1388.89 209.342 1394.92 212.429C1396.56 213.264 1397.65 216.919 1399.14 217.681C1399.56 217.897 1428.37 218.499 1429.48 217.954C1431.98 216.732 1433.81 216.049 1435.68 214.217" stroke="#BECCED"/>
<path d="M1341.06 245.131C1345.17 245.44 1349.24 245.678 1353.38 245.716C1359.86 245.774 1367.17 244.52 1373.76 245.899C1375.18 246.195 1375.88 247.099 1376.59 247.82C1377.24 248.48 1381.12 248.901 1382.27 249.293C1398.79 254.966 1399.73 259.166 1417.77 254.826" stroke="#BECCED"/>
<path d="M1416.62 277.095C1403.81 276.98 1404.04 278.764 1393.33 283.996C1388.52 286.35 1382.63 287.598 1377.64 289.544C1368.98 292.916 1362.64 298.671 1355.7 304.517C1352.08 307.558 1347.38 309.66 1343.3 311.991C1346.21 312.987 1345.52 313.32 1348.04 312.507C1351.59 311.358 1354.93 309.491 1358.51 308.335C1364.58 306.371 1372.41 306.964 1377.98 304.243C1381.51 302.518 1387.34 305.302 1391.25 304.362C1398.37 302.65 1407.54 292.211 1415.97 296.525C1422.17 299.693 1430.22 306.134 1438.64 306.209" stroke="#BECCED"/>
<path d="M1356.9 329.179C1376.41 341.28 1388.49 321.878 1402.47 322.003" stroke="#BECCED"/>
<path d="M1356.9 329.182C1369.43 333.075 1378.95 352.521 1394.19 346.582C1398.28 344.991 1399.56 340.654 1403.75 338.609C1407.6 336.727 1413.26 334.995 1413.3 330.162" stroke="#BECCED"/>
<path d="M1349.78 382.685C1374.1 394.968 1389.49 369.197 1408.28 361.877C1412.23 360.338 1416.1 359.642 1420.16 358.665C1422.61 358.077 1427.94 356.722 1430.6 357.811C1437.72 360.733 1443.61 367.322 1450.39 370.788" stroke="#BECCED"/>
<path d="M1349.78 382.688C1357.73 387.925 1366.4 389.948 1375.79 390.032C1395.06 390.205 1401.44 376.702 1421.28 391.862C1424.16 394.058 1430.27 396.227 1432.13 398.122C1435.94 402.001 1436.81 409.293 1437.67 414.764C1439.11 423.895 1455.26 439.471 1462.07 442.952" stroke="#BECCED"/>
<path d="M1384.4 433.72C1395.91 441.809 1411.6 434.127 1424.19 437.395C1428.59 438.536 1432.98 441.741 1437.43 441.781" stroke="#BECCED"/>
<path d="M1387.57 450.342C1395.29 452.087 1404.42 449.945 1411.73 452.455" stroke="#BECCED"/>
<path d="M1388.8 472.156C1400.6 479.05 1412.66 479.091 1424.33 475.319" stroke="#BECCED"/>
<path d="M1390.83 509.623C1396.53 509.02 1401.66 506.406 1407 504.554C1418.86 500.438 1434.38 496.988 1447.34 499.702C1449.14 500.078 1450.86 501.501 1452.06 502.114C1460.41 506.382 1474.98 506.246 1482.87 502.391" stroke="#BECCED"/>
<path d="M1378.42 519.942C1379.36 519.951 1380.42 519.536 1381.26 519.968C1384.47 521.608 1386.56 524.98 1389.73 526.681C1393.1 528.485 1397.4 530.076 1401.07 531.523C1406.46 533.652 1413.21 537.674 1418.54 538.791C1423.61 539.852 1431.08 541.417 1435.56 544.158C1440.24 547.024 1445.09 551.204 1449.69 554.714C1455.87 559.439 1459.27 577.784 1464.11 585.183C1466.99 589.587 1472.23 590.54 1476.36 593.352" stroke="#BECCED"/>
<path d="M1370.16 541.676C1347.52 554.191 1343.46 563.846 1316.45 556.838C1313.86 556.164 1308.3 555.235 1306.53 553.43C1304.9 551.772 1304.31 548.611 1302.8 546.76C1299.78 543.07 1294.8 539.337 1290.56 537.169C1281.43 532.503 1266.04 529.502 1261.32 519.841" stroke="#BECCED"/>
<path d="M1308.94 654.9C1309.01 647.116 1314.94 641.024 1312.93 632.656C1310.2 621.291 1305.86 607.555 1309.94 595.653C1312.47 588.296 1323.01 587.187 1326.18 582.525C1327.78 580.166 1328.25 576.732 1330.04 574.975C1333.45 571.623 1330.04 562.838 1331.61 558.871C1337.74 549.103 1334.59 546.651 1331.79 538.014" stroke="#BECCED"/>
<path d="M1322.11 772.11C1321.22 771.212 1316.54 769.03 1315.53 765.888C1314.36 762.27 1314.39 757.985 1313.26 754.49C1312.2 751.205 1310.34 748.244 1309.55 744.976C1308.91 742.318 1311.47 733.059 1309.67 731.229C1306.06 727.555 1306.59 717.208 1304.16 712.218C1303.1 710.059 1305.28 706.318 1304.23 704.159C1296.83 689.023 1300.82 668.951 1308.94 654.9C1314.35 669.258 1331.7 666.9 1339.54 678.877C1343.38 684.763 1340.63 694.631 1343.61 700.72" stroke="#BECCED"/>
<path d="M1339.08 676.979C1347.73 673.754 1347.73 664.254 1352.99 659.089" stroke="#BECCED"/>
<path d="M1305.51 719.818C1308.23 721.192 1310.95 722.536 1313.53 724.157C1317.59 726.708 1320.01 729.373 1323.9 731.361C1328.99 733.965 1338.62 726.586 1343.82 730.117C1346.78 732.132 1345.97 735.307 1349.92 736.335C1353.75 737.328 1360.87 734.71 1364.14 736.936C1370.07 740.963 1365.7 747.362 1368.27 752.617C1369.03 754.171 1371.36 759.672 1373.41 760.722C1376.04 762.068 1380.84 762.396 1382.37 765.543C1383.2 767.241 1382.94 769.593 1383.74 771.244" stroke="#BECCED"/>
<path d="M1309.58 741.179C1305.03 746.031 1294.06 761.424 1288.07 761.37" stroke="#BECCED"/>
<path d="M1301.89 700.344C1289.56 700.926 1286.09 709.76 1279.47 716.26C1278.81 716.91 1276.92 716.795 1276.14 717.178C1270.79 719.792 1267.87 724.967 1265.12 730.353C1262.74 735.006 1264.45 751.98 1264.39 758.316" stroke="#BECCED"/>
<path d="M1266.58 726.099C1257.36 733.112 1253.11 714.514 1244.36 718.789C1241.07 720.4 1239.76 726.132 1237.16 728.679C1234.81 730.988 1231.18 731.269 1228.58 733.817" stroke="#BECCED"/>
<path d="M1304.12 663.863C1300.22 665.767 1301.73 665.448 1296.51 665.691C1293.09 665.85 1288.08 664.764 1284.66 665.584C1273.52 668.264 1264.63 678.445 1254.64 683.329C1250.23 685.484 1234.13 679.542 1223.33 685.892C1221.68 686.858 1220.44 686.411 1219.51 688.228" stroke="#BECCED"/>
<path d="M1233.79 682.195C1233.07 686.034 1229.75 688.696 1228.01 692.098C1225.91 696.196 1225.49 701.755 1224.09 705.811C1221.97 712.004 1214.62 716.424 1211.62 722.29C1209.02 727.375 1207.14 751.3 1208.94 756.872C1209.52 758.662 1212.92 759.486 1214.12 760.711C1216.72 763.358 1215.82 769.022 1217.34 772.117" stroke="#BECCED"/>
<path d="M1246.84 813.154C1236.97 823.707 1228.49 818.39 1221.25 811.028C1217.04 806.736 1206.83 813.231 1203.74 808.5C1192.01 790.564 1221.42 765.52 1236.36 765.654" stroke="#BECCED"/>
<path d="M1247.64 776.184C1244.59 770.994 1243.25 767.647 1236.36 765.653C1240.87 760.886 1241.21 752.962 1241.27 746.261" stroke="#BECCED"/>
<path d="M1430.97 791.576C1428.2 790.403 1416.31 776.378 1421.67 771.108C1425.93 766.929 1436.94 761.05 1442.17 758.493" stroke="#BECCED"/>
<path d="M1422.36 747.412C1429.9 744.973 1437.89 741.583 1445.21 737.188C1452.82 739.282 1457.81 750.574 1465.94 750.647" stroke="#BECCED"/>
<path d="M1417.46 606.101C1417.03 610.486 1411.68 612.368 1410.74 615.996C1408.49 624.642 1417.76 639.05 1413.78 646.837C1411.88 650.542 1410.51 654.329 1408.94 658.171C1406.78 663.433 1402.45 666.314 1399.34 670.884C1394.56 677.925 1390.8 691.912 1392.91 700.692C1398.66 724.605 1411.08 736.388 1410.85 762.48" stroke="#BECCED"/>
<path d="M1392.51 693.102C1384.19 697.891 1378.23 694.396 1370.69 694.328" stroke="#BECCED"/>
<path d="M1161.48 973.563C1161.9 967.897 1159.63 961.841 1155.46 957.865C1149.34 952.021 1140.53 950.658 1137.59 941.587C1132.52 925.904 1148.63 908.846 1151.27 896.201C1153.1 887.48 1157 858.783 1161.15 852.676C1170.93 838.277 1197.94 836.365 1190.42 813.119" stroke="#BECCED"/>
<path d="M1219.83 811.012C1214.74 810.966 1213.53 813.407 1209.36 816.133C1208.38 816.769 1206.23 815.726 1205.09 816.094C1197.13 818.667 1194.72 821.759 1190.28 828.287C1189.24 829.822 1187.63 831.336 1185.98 832.041C1192.76 827.636 1208.66 820.698 1217.34 824.263C1229.16 829.114 1233.64 833.891 1247.12 834.012" stroke="#BECCED"/>
<path d="M1174.06 840.466C1191.26 839.173 1210.45 835.269 1218.98 852.721" stroke="#BECCED"/>
<path d="M1145.45 911.794C1154.13 911.915 1170.88 910.558 1174.94 900.682C1176.02 898.053 1177.58 894.798 1179.75 892.666C1186.04 886.486 1196.79 882.273 1204.99 879.619C1206.01 879.291 1207.06 876.855 1207.87 876.327C1210.77 874.431 1228.94 865.613 1231.67 865.637" stroke="#BECCED"/>
<path d="M1159.68 963.589C1178.48 961.198 1197.19 956.577 1215.71 953.662C1219.62 953.046 1223.78 951.209 1227.59 949.977C1231.9 948.583 1243.22 949.989 1247.49 951.103C1253.26 952.599 1258.65 955.408 1264.5 957.419C1270.14 959.355 1275.83 956.782 1281.08 959.463" stroke="#BECCED"/>
<path d="M1285.92 789.801C1273.47 811.89 1288.14 809.423 1289.89 822.546C1290.84 829.631 1279.11 838.51 1281.08 853.281C1281.81 858.739 1283.92 870.833 1285.62 876.076C1286.86 879.929 1289.92 881.022 1291.7 884.663C1293.27 887.864 1292.66 900.795 1291.53 904.098C1286.91 917.566 1266.03 945.535 1265.93 956.488" stroke="#BECCED"/>
<path d="M1238.97 949.607C1242.98 936.236 1250.31 926.423 1246.89 912.228C1246.11 908.962 1246.57 906.25 1245.08 903.205C1241.54 895.973 1250.3 888.673 1240.03 885.145" stroke="#BECCED"/>
<path d="M1213.81 954.119C1213.82 952.381 1213.84 950.643 1213.85 948.905C1213.96 936.668 1215.02 936.055 1216.89 927.126C1218.4 919.952 1228.84 912.869 1226.59 903.51C1225.27 898.014 1217.23 895.728 1220.07 890.178" stroke="#BECCED"/>
<path d="M1181.52 959.521C1194.17 962.193 1197.12 981.468 1210.24 981.585" stroke="#BECCED"/>
<path d="M1101.64 722.249C1103.16 728.004 1105.39 732.794 1108.61 737.955C1112.08 743.519 1116.81 747.743 1120.81 751.812C1122.23 753.265 1125.23 753.987 1126.46 755.656C1129.06 759.191 1132.57 762.836 1135.37 766.639C1137.04 768.906 1137.05 772.179 1139.09 774.257C1144.5 779.759 1149.62 780.83 1151.28 789.536C1154.36 805.65 1143.95 805.365 1141.11 813.622C1138.72 820.577 1147.02 830.582 1149.93 835.033C1151.85 837.979 1149.63 845.329 1150.75 848.788C1152.54 854.33 1155.29 859.421 1156.78 864.012" stroke="#BECCED"/>
<path d="M1120.34 751.335C1114.91 737.608 1133.39 733.52 1136.24 722.56" stroke="#BECCED"/>
<path d="M1140.52 774.273C1136.32 750.926 1166.28 758.782 1170.64 746.1" stroke="#BECCED"/>
<path d="M1153.65 736.94C1153.01 737.408 1152.24 737.727 1151.74 738.345C1150.09 740.407 1147.95 743.501 1147.4 746.364C1146.76 749.718 1148.35 759.172 1143.97 759.133" stroke="#BECCED"/>
<path d="M1144.32 825.505C1149.68 817.529 1159.53 805.622 1169.18 802.499C1171.01 801.907 1174.22 800.842 1175.85 799.241C1177.07 798.037 1181.17 795.157 1183 794.565C1185.08 793.892 1188.04 792.432 1189.67 790.832C1192.83 787.727 1193.42 783.863 1196.4 780.937" stroke="#BECCED"/>
<path d="M1151.3 788.117C1154.01 786.848 1156.72 784.48 1158.46 782.018C1161.21 778.129 1162.13 772.306 1165.21 769.279C1167.84 766.699 1188.22 774.276 1192.3 762.412" stroke="#BECCED"/>
<path d="M1177.06 770.337C1179.75 766.164 1183.9 736.788 1190.66 733.482" stroke="#BECCED"/>
<path d="M1140.52 774.275C1132.13 765.458 1122.1 764.628 1110.74 764.526" stroke="#BECCED"/>
<path d="M1161.48 973.563C1168.25 984.949 1153.53 980.719 1152.36 986.281C1151.14 992.139 1151.15 1019.5 1153.92 1023.75C1154.97 1025.35 1157.59 1027.87 1158.14 1029C1161.09 1035.03 1153.22 1044.03 1156.52 1050.79C1159.05 1055.95 1169.57 1052.73 1174.03 1054.27C1177.02 1055.29 1180.6 1058.3 1184.42 1059.1C1195 1061.31 1221.19 1064.92 1231.8 1062.37C1237.5 1061 1243.42 1056.45 1248.47 1053.99C1249.85 1053.31 1252.61 1054.08 1253.69 1053.56C1253.57 1049.66 1256.14 1028.32 1253.93 1026.06C1247.43 1019.44 1244.09 1013.23 1244.18 1003.7" stroke="#BECCED"/>
<path d="M1254.88 1026.07C1256.13 1019.82 1263.14 1010.74 1264.55 1005.3C1264.81 1004.28 1264.1 1002.46 1264.58 1001.51C1266.32 998.1 1269.72 999.132 1272.67 998.738C1274.62 998.476 1275 996.898 1276.48 995.928C1278.23 994.786 1294.95 996.094 1298.29 996.124" stroke="#BECCED"/>
<path d="M1310.75 1031.53C1315.04 1030.71 1314.39 1031.66 1316.82 1026.89C1320.12 1020.45 1319.39 1013.53 1323.03 1008.18C1324.75 1005.64 1326.52 1000.76 1328.47 998.84C1329.9 997.435 1334.33 995.949 1335.22 994.208C1338.76 987.293 1336.22 947.903 1328.31 942.524C1321.83 938.123 1319.63 938.485 1319.71 929.709C1319.71 929.333 1319.48 925.148 1319.75 925.016C1325.62 922.148 1335.05 920.541 1341.95 917.171C1349.07 913.689 1357.64 908.65 1366.19 905.321C1373.98 902.285 1382.35 902.247 1389.73 896.817C1397.15 891.357 1402.07 885.638 1409.32 880.902C1415.85 876.634 1422.33 876.098 1428.18 870.345" stroke="#BECCED"/>
<path d="M1320.99 936.426C1312.61 925.951 1301.28 943.714 1292.15 937.508C1287.8 934.551 1284.39 926.041 1280.86 926.01" stroke="#BECCED"/>
<path d="M1330.96 945.902C1333.9 936.023 1343.29 936.111 1345.87 928.605" stroke="#BECCED"/>
<path d="M1335.9 993.547C1349.63 994.635 1377.53 986.653 1377.34 1007.33" stroke="#BECCED"/>
<path d="M1259.8 881.576C1268.34 904.821 1268.48 896.309 1280.56 884.443C1285.79 879.31 1300.71 890.948 1308.02 887.372C1311.3 885.771 1314.26 882.321 1317.47 880.752C1322.83 878.131 1332.41 832.734 1350.16 824.061C1354.91 821.737 1361.15 819.762 1365.64 816.825C1368.09 815.223 1375.21 816.17 1378.4 814.928C1383.6 812.904 1386.41 808.105 1391.88 806.334C1399.2 803.968 1408.16 817.068 1421.35 810.621" stroke="#BECCED"/>
<path d="M1345.45 826.031C1345.72 820.062 1350.41 793.225 1340.38 793.135" stroke="#BECCED"/>
<path d="M1145.45 911.793C1134.96 908.098 1129.74 895.559 1120.93 891.056C1118.97 890.05 1116.26 884.707 1114.97 882.958C1114.13 881.818 1112.62 882.596 1111.63 881.587C1106.18 876.034 1098.78 870.685 1094.35 864.671C1090.74 859.761 1091.69 855.199 1087.11 850.527C1081.52 844.837 1072.49 843.418 1066.43 838.275C1062.71 835.113 1058.36 828.089 1054.47 826.1C1048.95 823.276 1027.92 818.071 1025.74 815.115C1023.77 812.437 1022.51 808.441 1020.46 806.353" stroke="#BECCED"/>
<path d="M1081.78 846.456C1082.53 829.777 1090.32 806.172 1080.27 790.798C1078.75 788.471 1074.96 788.136 1073.61 785.375C1068.23 774.36 1066.08 766.038 1055.06 760.403C1054.33 760.03 1054.62 748.568 1053.84 746.983" stroke="#BECCED"/>
<path d="M1137.26 940.14C1133 940.159 1128.51 938.871 1124.54 937.345C1119.77 935.505 1115.93 932.59 1110.52 931.185C1099.53 928.334 1082.71 935.534 1072.96 932.189C1066.58 929.999 1056.64 928.153 1050.18 931.315C1048.74 932.016 1031.85 946.424 1029.24 948.558C1017.17 958.432 1030.33 987.451 1008.78 987.258" stroke="#BECCED"/>
<path d="M1059.47 867.038C1061.39 875.011 1065.14 886.246 1069.3 892.601C1070.72 894.783 1073.17 894.559 1075.3 896.007C1079.47 898.841 1082.53 906.711 1084.55 910.84C1086.86 915.554 1082.88 923.122 1085.07 927.604C1085.91 929.308 1087.73 930.31 1089.06 931.663C1079.83 940.255 1086.94 952.837 1083.41 963.122C1082.95 964.467 1076.8 965.744 1075.34 965.731" stroke="#BECCED"/>
<path d="M1154.6 1024.77C1143.45 1031.88 1111.23 1026.17 1100.86 1036.36C1090.66 1046.37 1088.05 1054.16 1081.82 1066.36C1080.52 1068.89 1075.68 1069.8 1074.39 1072.32C1072.07 1076.86 1068.13 1081.52 1064.88 1086.32C1063.08 1088.95 1053.25 1089.33 1050.09 1090.88C1043.31 1094.19 1044.05 1100.12 1039.23 1104.86" stroke="#BECCED"/>
<path d="M1311.17 88.8989C1300.42 87.6148 1301.04 77.6877 1295.22 69.7936C1291.49 64.7152 1289.99 59.9286 1286.83 54.5485C1283.72 49.2547 1280.35 47.4247 1275.54 44.9659C1252.32 33.0986 1246.18 59.7012 1232.62 73.0242C1228.48 77.0884 1211.24 79.6307 1205.08 77.5174C1195.42 74.2024 1191.88 56.4196 1184.48 48.8893C1183.49 47.8844 1139.27 64.3065 1135.96 66.468C1128.67 71.24 1124.13 84.5246 1114.9 89.0337C1110 91.4312 1103.76 89.0612 1100.64 93.646C1093.27 104.489 1093.22 115.033 1083.29 124.778C1081.26 126.78 1071.38 123.723 1069.08 123.703" stroke="#BECCED"/>
<path d="M1069.08 123.704C1062.46 130.812 1043.17 120.027 1036.82 126.259C1030.59 132.385 1018.76 136.459 1012.94 145.955C1003.24 161.801 997.738 177.801 984.091 191.205C978.891 196.312 966.604 199.065 959.347 201.412C950.49 204.276 947.232 223.648 941.078 229.691C933.086 237.541 922.353 230.822 913.533 235.133C911.739 236.011 906.347 250.85 902.917 255.896C901.583 257.859 904.209 276.881 905.549 279.622C908.329 285.309 912.269 285.507 915.892 289.196C920.374 293.759 913.166 314.204 915.612 320.481C918.868 328.838 925.809 346.349 925.734 354.704" stroke="#BECCED"/>
<path d="M983.134 192.138C979.037 208.111 990.458 221.218 990.327 235.816C990.299 238.993 988.491 251.167 990.174 252.88C997.669 260.511 1004 263.784 1008.95 273.907C1009.99 276.031 1004.3 275.653 1003.23 276.7C1001.07 278.825 1001.3 280.77 1001.27 284.268C1001.15 297.465 1001.99 310.113 1001.87 323.146C1001.83 328.032 987.44 362.031 983.541 358.061C981.45 355.932 987.354 355.251 988.307 355.26" stroke="#BECCED"/>
<path d="M1069.08 123.703C1078.64 129.026 1094.49 132.226 1099.26 141.988C1104.14 151.969 1103.51 181.428 1100.7 192.25C1098.31 201.461 1093.32 210.991 1090.02 220.598C1087.51 227.911 1091.39 237.639 1089.8 245.247C1088.81 249.949 1084.3 254.513 1083.03 259.408C1080.26 270.092 1083.59 282.714 1079.88 293.511C1072.24 315.761 1098.5 332.047 1098.28 356.252" stroke="#BECCED"/>
<path d="M1082.51 317.239C1075.76 322.001 1064.61 330.351 1056.8 330.281" stroke="#BECCED"/>
<path d="M1122.86 258.816C1104.46 249.407 1088.43 245.556 1090.04 218.701C1087.39 222.656 1092.06 230.582 1089.89 234.818C1087.45 239.589 1068.23 283.348 1067.64 283.919C1060.93 290.517 1050.32 294.511 1045.66 303.632" stroke="#BECCED"/>
<path d="M910.102 89.0944C917.647 88.9919 925.453 89.4833 932.839 91.1947C945.123 94.0404 959.541 97.5446 972.633 94.3962C992.627 89.5882 1013.65 65.6851 1038.24 74.1266C1050.95 78.4922 1071.2 85.6847 1080.71 95.3663C1084.05 98.768 1088.08 104.369 1092.94 106.853" stroke="#BECCED"/>
<path d="M1112.66 21.6989C1081.77 36.9328 1092.98 58.672 1103.6 80.4003C1105.34 83.9433 1116.2 82.9883 1118.7 88.1206" stroke="#BECCED"/>
<path d="M1012.63 74.8392C1009.52 73.2896 1004.95 70.7124 1003.22 67.1698C999.873 60.3265 1003.58 27.3256 1003.66 17.872" stroke="#BECCED"/>
<path d="M978.339 92.5467C968.226 82.5114 972.18 65.2286 962.554 55.4287" stroke="#BECCED"/>
<path d="M947.036 94.1628C940.763 75.3698 932.411 75.4425 929.363 56.0801" stroke="#BECCED"/>
<path d="M1037.29 74.1124C1032.16 64.8333 1035.57 53.9769 1035.67 43.7584" stroke="#BECCED"/>
<path d="M1069.08 123.702C1050.45 133.072 1057.53 142.817 1057.38 159.625" stroke="#BECCED"/>
<path d="M1069.08 123.703C1072.23 124.679 1076.14 124.365 1078.54 126.632C1083.25 131.084 1086.16 164.812 1081.91 173.12" stroke="#BECCED"/>
<path d="M1170.14 326.082C1166.3 330.666 1160.78 331.902 1155.37 334.008C1151.88 335.367 1143.68 336.091 1141.11 338.621C1132.09 347.477 1131.86 366.345 1120.88 373.519" stroke="#BECCED"/>
<path d="M785.178 591.42C786.616 599.364 787.888 607.277 789.706 615.163C792.743 628.336 800.564 646.32 795.943 659.781C793.822 665.957 775.442 688.657 782.346 695.687C785.966 699.372 793.402 700.924 795.534 705.286C799.888 714.192 815.079 733.794 821.765 740.601C827.311 746.248 837.355 745.949 843.469 752.173C848.66 757.459 850.042 765.534 857.537 769.366C863.025 772.171 890.703 778.257 893.462 781.065C896.423 784.08 898.254 787.857 900.961 790.614C902.263 791.939 929.023 792.103 934.11 794.704C948.141 796.229 977.402 820.781 989.927 808.478C996.384 802.137 991.055 780.045 1005.35 780.173" stroke="#BECCED"/>
<path d="M934.111 794.701C957.333 793.915 950.933 818.525 960.359 828.12C962.056 829.848 965.5 831.441 966.953 832.92" stroke="#BECCED"/>
<path d="M876.458 774.269C878.357 773.97 880.376 774.103 882.155 773.373C889.895 770.195 897.225 765.454 905.01 762.2C908.991 760.536 915.368 764.216 919.231 762.328C921.429 761.254 925.932 757.605 926.876 755.76" stroke="#BECCED"/>
<path d="M940.471 719.854C931.778 724.104 931.491 748.635 926.875 755.761C938.847 757.758 951.884 748.694 961.928 758.92" stroke="#BECCED"/>
<path d="M808.637 724.361C813.394 722.507 818.556 721.467 822.909 718.8C826.339 716.699 828.529 713.036 831.519 710.345C840.557 702.208 857.904 704.893 869.493 704.997" stroke="#BECCED"/>
<path d="M839.711 748.342C844.458 732.388 863.702 738.674 870.253 725.862" stroke="#BECCED"/>
<path d="M876.457 774.271C883.473 782.604 886.708 794.259 886.605 805.649" stroke="#BECCED"/>
<path d="M453.416 687.041C462.82 689.338 478.664 677.568 488.537 682.616C498.45 687.683 492.748 695.091 495.952 701.644C500.45 710.846 510.64 714.868 518.552 718.913C523.381 721.382 553.306 714.631 558.431 712.634C560.385 711.873 560.641 708.25 563.222 706.989C568.308 704.503 581.861 708.429 584.029 712.864C584.531 713.89 582.364 718.434 583.013 720.44C585.004 726.597 600.349 727.356 605.716 726.332C628.865 721.918 615.122 721.792 624.805 712.282C627.255 709.876 632.518 709.438 635.276 707.635C642.409 702.973 662.4 720.334 675.992 713.689C689.565 707.055 687.939 697.594 706.509 694.053C716.364 692.174 730.914 694.669 740.666 691.515C749.515 688.654 774.936 674.729 781.467 688.089" stroke="#BECCED"/>
<path d="M733.027 591.895C745.135 592.289 744.323 615.976 742.201 626.11C739.865 637.268 725.284 667.773 730.357 678.149C732.178 681.875 733.494 690.91 734.969 692.412C737.59 695.081 740.322 696.605 742.477 701.013C744.258 704.656 741.579 711.19 742.35 715.233C743.734 722.494 749.856 737.469 752.506 745.664C756.814 758.985 767.66 766.831 775.944 775.266C779.428 778.812 779.162 790.536 781.454 795.225C782.369 797.097 790.833 799.692 792.78 801.016C800.099 805.99 802.798 814.966 809.684 819.181C823.133 827.415 860.657 844.499 860.488 863.25C862.55 866.872 865.107 872.112 868.919 874.703C876.653 879.96 889.677 869.86 895.405 881.578C897.715 886.303 911.294 912.104 914.069 914.929C918.5 919.439 931.866 926.114 933.826 932.172C938.502 946.632 946.604 960.134 961.005 967.496" stroke="#BECCED"/>
<path d="M894.483 878.724C917.671 864.331 927.472 864.798 956.235 865.056" stroke="#BECCED"/>
<path d="M860.488 863.248C857.839 868.43 856.507 869.688 855.646 874.581C854.232 882.619 858.054 893.418 855.408 901.126C851.531 912.417 843.85 921.113 843.741 933.257" stroke="#BECCED"/>
<path d="M780.523 793.32C779.774 796.84 777.104 801.376 774.741 803.697C773.014 805.393 768.53 804.009 766.2 804.568C749.915 808.484 740.578 822.735 736.503 838.434C736.019 840.299 735.815 846.05 736.418 847.914C737.963 852.69 757.805 857.999 762.845 861.425C776.208 870.507 777.01 887.714 794.765 896.791" stroke="#BECCED"/>
<path d="M738.322 846.987C726.754 854.647 732.138 865.921 728.577 876.291C725.339 885.722 711.39 883.497 715.1 898.924C715.745 901.608 720.625 909.828 722.574 911.317C723.029 911.664 726.971 911.623 727.306 912.307C728.005 913.738 727.724 917.498 728.194 918.952" stroke="#BECCED"/>
<path d="M776.93 876.723C775.527 887.701 765.173 894.128 761.54 901.235" stroke="#BECCED"/>
<path d="M487.58 683.557C501.361 668.836 495.332 646.042 504.191 628.716" stroke="#BECCED"/>
<path d="M504.192 628.717C510.088 614.937 519.207 607.392 529.123 597.653C580.928 572.402 549.865 590.702 565.558 552.471C567.509 547.718 575.532 546.503 577.028 542.145C579.904 533.771 567.325 525.73 571.561 517.445C575.368 509.999 591.952 502.883 595.442 497.749C598.55 493.177 603.633 488.249 605.998 483.622C607.549 480.589 604.8 475.415 606.1 472.246C609.204 464.685 615.53 460.245 619.535 454.352C622.54 449.931 627.363 440.785 629.186 435.477C630.331 432.143 627.026 423.504 629.314 421.256C638.353 412.378 661.765 400.75 654.287 385.452" stroke="#BECCED"/>
<path d="M566.209 374.234C571.826 373.968 577.644 375.964 582.284 379.119C592.318 385.938 591.822 403.18 600.008 411.513C608.153 419.805 621.148 422.512 628.289 429.781C630.824 432.362 646.115 419.512 649.24 419.54C659.675 419.634 673.873 414.367 684.336 417.959C690.689 420.14 695.559 429.139 703.221 426.661C709.04 424.779 711.966 414.314 716.647 409.716C724.059 402.436 736.706 408.406 745.141 404.283" stroke="#BECCED"/>
<path d="M706.073 425.735C715.964 426.659 722.425 434.26 733.541 428.826" stroke="#BECCED"/>
<path d="M547.889 408.201C532.484 415.429 536.849 457.234 546.413 466.971C558.713 479.493 571.755 495.794 571.586 514.602" stroke="#BECCED"/>
<path d="M570.34 547.771C589.785 542.272 604.421 545.207 621.511 551.074C626.154 552.668 629.411 558.447 633.751 560.665C640.896 564.318 650.558 565.448 658.324 569.419" stroke="#BECCED"/>
<path d="M604.068 487.394C609.259 487.185 610.614 492.146 613.48 495.064C619.013 500.696 636.001 499.626 642.811 501.964C651.256 504.863 664.857 512.928 670.161 518.327C671.518 519.708 672.701 523.32 674.85 524.058C680.012 525.83 686.241 527.349 689.968 529.882C695.055 533.339 695.378 572.29 693.326 578.266C691.954 582.264 688.837 584.878 687.544 588.643" stroke="#BECCED"/>
<path d="M620.508 451.517C624.442 456.886 629.179 460.344 633.662 464.908C634.113 465.368 639.63 465.646 640.29 465.916C658.064 473.21 687.958 483.586 708.458 476.957C715.003 474.84 719.584 468.687 725.625 465.733C731.75 462.74 737.322 461.431 743.707 458.311C752.633 453.948 766.551 461.302 775.958 456.704" stroke="#BECCED"/>
<path d="M708.466 476.008C711.307 476.35 714.328 475.975 716.99 477.032C723.228 479.496 722.314 488.192 726.334 492.286C730.58 496.608 739.58 498.117 742.375 500.963" stroke="#BECCED"/>
<path d="M670.18 833.102C648.409 832.907 644.169 792.009 633.698 777.784C630.149 772.962 623.755 769.304 620.545 764.393C612.438 751.994 614.142 731.92 598.148 724.371C604.563 705.885 595.592 680.008 604.39 662.8C605.459 660.71 609.396 658.597 610.129 657.163C614.322 648.962 609.429 629.566 609.513 620.181" stroke="#BECCED"/>
<path d="M487.58 683.557C489.798 682.946 491.987 682.218 494.234 681.721C501.153 680.19 510.129 680.204 515.151 675.272C518.081 672.394 521.332 663.505 525.699 662.093C538.126 658.074 562.016 654.321 552.492 634.838" stroke="#BECCED"/>
<path d="M535.215 658.387C556.064 657.595 565.138 667.255 573.274 643.559C575.29 637.686 581.413 635.09 583.822 630.38C585.448 627.199 582.805 625.74 585.786 622.812" stroke="#BECCED"/>
<path d="M542.28 716.28C542.734 718.661 542.774 722.146 545.056 723.89C546.754 725.186 552.858 726.212 554.494 728.715C567.033 747.894 548.89 791.285 555.641 812.159" stroke="#BECCED"/>
<path d="M507.227 713.123C510.99 731.95 503.497 743.967 499.217 760.457C495.266 775.678 502.922 794.905 497.826 809.746C495.26 817.219 493.209 827.223 494.752 835.317C495.825 840.943 500.386 841.519 500.33 847.693" stroke="#BECCED"/>
<path d="M598.149 724.369C585.381 746.853 589.648 774.492 585.143 800.101" stroke="#BECCED"/>
<path d="M504.192 628.714C482.842 637.91 480.994 619.482 468.284 615.118" stroke="#BECCED"/>
<path d="M644.758 707.72C663.381 690.812 642.701 655.544 650.162 633.816C650.962 631.487 654.67 629.655 655.91 627.23" stroke="#BECCED"/>
<path d="M688.211 619.938C686.06 631.351 660.091 668.419 680.099 678.648C687.659 682.513 707.894 687.811 712.215 692.21" stroke="#BECCED"/>
<path d="M644.758 707.723C650.813 701.319 645.793 716.954 649.405 718.194C672.243 726.035 669.536 727.828 676.618 749.725" stroke="#BECCED"/>
<path d="M780.06 -211.681C798.001 -187.191 780.334 -156.453 786.904 -129.134C789.024 -120.32 798.174 -113.338 802.818 -106.236C809.603 -95.8587 801.86 -69.2875 798.608 -59.8169C794.924 -49.087 807.3 -45.8982 810.746 -38.8495C815.826 -28.4588 798.553 -10.1796 796.185 -1.05581C791.856 15.6208 808.603 39.1443 798.535 53.9554C790.124 66.3296 766.488 60.1818 754.813 65.8884C750.65 67.9234 735.385 74.0821 732.888 78.9653C730.794 83.0617 730.182 87.2617 727.098 90.2906C717.828 99.3948 697.51 93.2084 690.926 106.084C687.326 113.126 708.953 109.629 711.716 113.855C714.572 118.223 715.093 123.659 717.277 128.127C719.804 133.297 726.967 132.251 730.482 135.83C731.019 136.377 730.448 139.589 730.439 140.57C730.375 147.783 727.929 160.091 730.201 167.115C732.233 173.399 734.004 178.675 732.875 186.101C730.822 199.603 726.035 219.131 716.375 228.618C710.741 234.152 698.679 235.007 693.493 242.635C685.723 254.067 689.901 268.715 678.941 279.48C672.764 285.547 661.717 288.371 655.128 291.592C647.858 295.145 642.255 301.387 639.806 308.52C638.961 310.98 629.864 312.647 627.421 315.046C620.981 321.372 622.034 347.936 617.566 356.674C615.732 360.262 608.507 362.597 606.121 364.156" stroke="#BECCED"/>
<path d="M625.534 314.086C614.698 325.434 600.459 323.455 586.535 327.958C577.663 330.827 572.233 335.419 563.688 338.182" stroke="#BECCED"/>
<path d="M689.017 213.205C709.454 239.286 684.26 272.02 697.724 299.561C700.892 306.041 695.137 316.475 698.459 323.27C714.334 355.745 716.891 336.979 731.455 344.425C739.761 348.672 739.459 363.098 745.454 369.202" stroke="#BECCED"/>
<path d="M730.304 155.744C734.733 155.783 734.847 155.401 738.829 156.768C747.427 159.72 755.961 163.622 763.385 167.417C767.681 169.614 776.579 167.279 781.39 168.527C788.112 170.272 789.17 177.948 793.604 180.962C799.167 184.743 810.556 186.708 814.36 192.526C816.645 196.02 820.231 202.754 820.869 206.806C822.883 219.6 814.955 229.589 812.03 240.858C809.642 250.058 814.154 261.048 811.766 270.247C808.668 282.184 801.184 292.71 798.187 304.257C794.988 316.579 795.092 332.187 794.977 344.997" stroke="#BECCED"/>
<path d="M806.818 187.714C830.232 184.02 836.423 158.637 851.777 143.556C856.878 138.546 863.75 137.636 868.005 131.377C874.177 122.296 871.591 101.779 882.541 96.4271" stroke="#BECCED"/>
<path d="M782.346 167.588C796.054 165.196 791.931 137.664 796.924 127.899C800.108 121.673 810.289 121.335 814.1 115.727C815.353 113.885 814.12 111.491 815.099 110.048C830.805 86.9426 828.189 86.1879 854.302 73.4233" stroke="#BECCED"/>
<path d="M710.661 231.41C718.168 246.089 724.124 259.915 731.136 274.259C734.01 280.138 743.507 283.089 747.125 288.624C750.379 293.6 750.432 301.557 754.557 305.757C760.826 312.139 770.661 307.402 770.547 320.122" stroke="#BECCED"/>
<path d="M698.379 238.306C698.539 244.999 697.671 265.321 702.783 270.525C705.205 272.991 707.591 276.266 709.402 279.97C710.798 282.826 716.105 284.088 718.063 286.082C719.024 287.059 732.32 314.519 732.547 315.71C733.165 318.954 733.116 326.451 731.756 329.111" stroke="#BECCED"/>
<path d="M725.951 303.583C727.277 303.069 731.017 310.55 733.253 311.694C753.88 322.239 743.406 322.223 752.436 340.694" stroke="#BECCED"/>
<path d="M729.506 206.402C729.46 211.595 728.763 213.927 730.739 218.481C731.226 219.605 746.432 239.636 747.306 240.083" stroke="#BECCED"/>
<path d="M733.781 178.283C737.927 189.035 745.217 196.397 754.347 202.603" stroke="#BECCED"/>
<path d="M819.906 218.611C829.891 219.435 819.956 225.824 821.827 228.685C823.99 231.993 828.734 233.379 831.823 235.479C849.015 247.164 869.272 238.226 880.671 245.973C882.217 247.025 883.71 250.824 884.633 252.713" stroke="#BECCED"/>
<path d="M813.064 233.967C811.35 238.95 832.252 256.036 832.953 258.951C835.908 271.238 829.729 275.287 840.087 285.831C843.633 289.442 861.15 289.608 866.166 293.44C879.984 303.998 876.658 319.551 876.507 336.439" stroke="#BECCED"/>
<path d="M866.83 294.117C862.484 308.659 864.256 321.717 855.743 334.242" stroke="#BECCED"/>
<path d="M790.494 59.4594C800.831 57.2221 813.544 63.8769 823.349 59.0846C828.387 56.6222 830.602 46.4492 832.221 41.7332C832.49 40.9495 845.619 23.3735 847.838 19.7499C849.48 17.0683 854.07 16.124 855.267 13.7827" stroke="#BECCED"/>
<path d="M866.448 38.0152C852.693 37.8917 845.712 50.4122 830.79 51.7743C841.778 54.4896 849.57 57.9766 861.574 58.0843" stroke="#BECCED"/>
<path d="M773.033 62.6533C783.237 50.7059 775.779 35.5015 770.03 23.7422" stroke="#BECCED"/>
<path d="M770.031 23.7451C769.721 17.7041 778.776 -0.339233 770.031 23.7451" stroke="#BECCED"/>
<path d="M756.244 65.8556C758.93 53.6901 755.786 45.8031 750.488 34.9648" stroke="#BECCED"/>
<path d="M773.035 62.6504C787.304 64.4639 798.518 68.388 803.704 81.6974" stroke="#BECCED"/>
<path d="M790.134 99.6826C795.652 107.179 801.642 112.89 799.303 123.9C807.886 124.945 822.783 127.371 827.513 118.119C828.853 115.499 833.034 110.082 835.642 108.806C843.803 104.817 851.864 102.879 859.867 98.9675" stroke="#BECCED"/>
<path d="M826.824 176.991C832.328 178.962 839.782 175.258 845.311 177.157C861.998 182.885 878.072 190.763 883.44 207.364" stroke="#BECCED"/>
<path d="M853.819 180.08C866.753 181.449 862.808 162.147 873.416 162.242" stroke="#BECCED"/>
<path d="M810.288 276.397C814.132 278.363 810.073 276.189 815.003 279.284C816.939 280.501 821.407 282.455 823.019 284.097C829.532 290.727 825.297 304.785 837.946 311.252" stroke="#BECCED"/>
<path d="M849.111 757.433C853.064 753.565 860.804 746.161 867.227 746.218" stroke="#BECCED"/>
<path d="M858.964 768.898C869.606 765.557 869.796 752.621 876.711 745.829C878.776 743.801 884.266 742.136 887.187 740.708" stroke="#BECCED"/>
<path d="M918.966 791.72C929.149 788.552 930.931 779.154 931.013 770.021" stroke="#BECCED"/>
<path d="M950.851 778.258C950.789 785.077 948.383 791.691 949.246 798.628C956.206 796.948 965.77 796.493 971.119 791.239C972.292 790.088 972.75 787.66 974.48 786.529C976.946 784.917 982.104 782.329 983.06 781.391" stroke="#BECCED"/>
<path d="M1252.48 315.678C1252.52 310.442 1250.69 304.394 1247.93 299.882C1247 298.37 1245.34 296.296 1244.96 294.492C1243.49 287.61 1248.51 279.641 1249.17 273.076C1247.84 272.395 1246.54 271.642 1245.17 271.029C1236.36 267.082 1235.03 256.587 1230.23 254.135" stroke="#BECCED"/>
<path d="M1265.61 252.987C1258.11 256.653 1245.86 246.212 1239.4 241.817" stroke="#BECCED"/>
<path d="M1220.68 272.486C1220.43 274.781 1218.18 280.097 1220.26 281.868C1222.87 284.077 1224.1 286.297 1225.56 289.29C1226.28 290.755 1227.81 290.478 1228.55 291.999C1228.79 292.472 1227.77 293.023 1227.54 293.33C1222.34 300.129 1217.73 303.314 1217.65 312.013" stroke="#BECCED"/>
<path d="M802 37.873C808.898 29.2736 818.603 0.571779 832.2 0.69381" stroke="#BECCED"/>
<path d="M899.171 -13.3998C903.054 0.302075 892.467 -10.9992 890.583 -7.31411C889.377 -4.95496 888.833 -2.16714 887.196 0.240375C886.327 1.51959 883.736 1.55177 882.439 2.09395C875.457 5.01228 871.799 3.92362 865.395 -0.42925C859.584 -4.3792 862.758 -8.98615 853.147 -9.07241" stroke="#BECCED"/>
<path d="M887.692 -2.12366C887.16 0.533535 886.391 3.18047 886.671 5.92611C887.105 10.1802 891.419 14.1776 890.353 18.2845C888.098 26.971 882.75 33.2553 883.973 42.4041" stroke="#BECCED"/>
<path d="M954.397 -39.4528C954.818 -36.5897 953.659 -34.1146 951.959 -31.8897C947.699 -26.315 941.971 -24.532 939.972 -16.8276C938.12 -9.6945 940.651 -1.59954 938.823 5.44265C937.85 9.19258 937.77 13.1641 936.825 16.802C935.661 21.2882 933.454 22.7037 933.409 27.6746" stroke="#BECCED"/>
<path d="M1006.49 -139.485C996.518 -118.375 1004.6 -94.0523 1000.67 -71.7473C999.419 -64.6204 993.568 -59.8827 991.495 -52.8675C989.801 -47.1318 993.078 -39.198 990.377 -33.9153C986.662 -26.6484 979.027 -23.824 976.011 -17.9264C973.077 -12.1875 981.835 0.167853 975.769 9.09256" stroke="#BECCED"/>
<path d="M1001.96 49.1506C1004.35 36.0469 1017.62 35.6699 1024.91 27.076C1025.94 25.8677 1026.05 24.0785 1027.32 22.831" stroke="#BECCED"/>
<path d="M1072.95 -201.463C1072.9 -195.666 1072.41 -190.93 1073.75 -185.338C1075.12 -179.654 1088.73 -175.929 1091.63 -170.008C1093.73 -165.717 1094.73 -160.457 1097.2 -156.684C1100.57 -151.53 1089.41 -143.567 1090.43 -142.523C1093.58 -139.32 1102.35 -138.717 1105.53 -133.855C1110.16 -126.764 1107.9 -101.782 1110.9 -98.7265C1112.9 -96.6902 1116.53 -92.0417 1117.45 -89.1867C1120.49 -79.7859 1101.78 -38.9957 1096.06 -29.6477C1089.13 -18.3403 1080.29 -9.25441 1073.02 1.43309C1071.15 4.18454 1066.25 5.26647 1064.44 7.04477" stroke="#BECCED"/>
<path d="M1413.76 -37.2256C1425.45 -31.1589 1428.24 -19.4463 1432.46 -8.61429C1432.99 -7.253 1431.62 -4.13904 1432.41 -2.92624C1434.82 0.754986 1441.53 3.4845 1444.65 6.6646C1449.77 11.8742 1443.52 22.7341 1450.14 29.4685C1459.21 38.7086 1476.15 36.8219 1486.01 46.8564C1490.17 51.0876 1489.62 70.3177 1496.15 79.1833C1500.43 84.9943 1508.14 83.741 1514.07 89.7733C1528.28 104.24 1512.28 124.484 1532.6 138.293C1533.81 139.117 1536.92 137.873 1538.28 138.344C1565.13 147.562 1560.84 141.449 1583.83 134.012C1590.96 131.709 1599.26 133.664 1605.68 129.468C1615.3 123.179 1613.9 105.706 1633.35 110.754C1647.46 114.418 1649.66 145.283 1671.81 156.608" stroke="#BECCED"/>
<path d="M1434.32 -4.80374C1436.63 16.0572 1434.33 30.8978 1419.65 45.3141C1415.64 49.2548 1409.14 51.0161 1407.23 56.58" stroke="#BECCED"/>
<path d="M1372.31 1094.44C1401.86 1087.25 1387.72 1053.94 1398.37 1043.48C1407.23 1034.77 1416.53 1026.62 1416.66 1012.35" stroke="#BECCED"/>
<path d="M1361.67 906.62C1370.14 905.809 1377.36 909.202 1383.4 915.348C1384.45 916.414 1385.2 921.294 1386.18 922.958C1389.89 929.27 1397.76 934.753 1403.09 940.176C1415.73 953.049 1456.91 947.876 1475.02 954.095C1483.61 957.042 1489.96 969.306 1495.69 975.138" stroke="#BECCED"/>
<path d="M1428.18 870.349C1422 857.197 1418.17 843.898 1418.3 829.386" stroke="#BECCED"/>
<path d="M1400.74 885.169C1388.05 881.221 1397.11 867.127 1390.53 860.426" stroke="#BECCED"/>
<path d="M453.416 687.042C448.57 683.612 446.218 686.093 442.022 688.836C435.38 693.178 436.234 701.094 432.38 706.763C426.099 716.004 396.96 722.514 385.805 719.619C382.084 718.653 381.164 714.593 379.237 711.975C376.609 708.405 367.561 707.742 365.075 705.211C360.995 701.058 358.423 694.013 353.826 690.889C345.928 685.521 329.534 699.177 319.678 692.478C316.053 690.015 314.672 686.104 312.178 682.93C300.466 668.018 289.15 664.709 269.677 664.534C264.866 664.491 255.696 662.402 251.663 664.373C242.85 668.681 233.904 683.543 223.973 685.931C208.998 689.532 195.579 698.784 185.846 708.343C178.753 715.31 165.038 711.357 156.311 724.196C154.653 726.636 156.85 732.51 156.209 735.572C154.92 741.731 144.079 746.897 141.826 753.457C139.226 761.031 134.143 795.55 129.093 798.852C115.09 808.006 97.563 797.275 83.5343 804.132C78.1747 806.752 86.425 821.422 81.451 824.972C72.8675 831.097 56.4501 832.751 50.9679 840.816C48.73 844.108 60.4269 846.68 61.3201 849.442C63.1701 855.162 69.4864 871.712 76.2596 875.175C86.3935 880.356 99.4384 878.373 109.366 884.005C139.536 901.122 136.569 916.8 177.457 903.578C190.719 899.289 199.033 878.524 200.441 878.185C215.587 874.543 214.693 892.615 223.972 897.359C229.271 900.068 236.705 895.854 241.072 893.72C249.31 889.693 264.042 894.301 273.315 893.062C278.595 892.355 273.823 888.205 281.873 890.294C291.707 892.846 288.248 905.875 300.647 911.321C307.655 914.399 315.08 906.449 321.53 908.664C324.722 909.76 333.664 914.189 338.536 915.453C351.178 918.735 377.924 910.346 385.88 922.515C391.216 930.676 395.84 943.569 398.881 952.971C401.929 962.397 399.529 970.708 404.323 980.515C407.026 986.045 415.946 984.837 419.407 990.132C423.472 996.349 432.074 1014.55 440.018 1017.81C449.687 1021.78 461.714 1017.57 468.358 1029.44C470.479 1033.23 477.268 1043.04 477.677 1047.54C478.571 1057.37 476.458 1069.26 484.05 1076.99C497.802 1090.99 529.404 1096.14 541.576 1111.64C547.216 1118.82 552.401 1154.18 547.77 1161C544.6 1165.66 543.187 1159.94 544.841 1170.45C546.198 1179.07 550.953 1188 555.997 1195.2C566.593 1210.32 580.989 1256.1 600.012 1256.27" stroke="#BECCED"/>
<path d="M655.872 1053.88C657.297 1048.08 660.198 1042.71 661.714 1036.87C663.86 1028.6 655.721 1020.6 658.151 1011.24C658.65 1009.32 661.183 1005.71 662.012 1003.69C664.618 997.339 659.235 988.724 661.259 981.874C662.51 977.641 667.094 973.97 668.007 969.609C669.591 962.042 668.158 952.744 668.228 944.96" stroke="#BECCED"/>
<path d="M663.003 998.953C670.289 993.661 686.196 991.779 690.642 983.083C693.694 977.114 692.073 972.778 696.475 967.018C699.191 963.463 704.789 964.729 706.963 960.475C711.851 950.916 708.22 933.118 704.434 925.373" stroke="#BECCED"/>
<path d="M741.272 940.871C731.788 960.735 748.403 965.843 753.24 980.799C756.714 991.543 751.115 1006.23 751.02 1016.81C750.964 1023.09 756.286 1037.25 753.635 1042.43C751.809 1046 747.167 1047.76 748.801 1052.82C752.259 1063.51 754.044 1075.74 749.442 1086.95C747.659 1091.3 742.955 1094.05 740.808 1098.25C698.919 1097.92 720.784 1123.39 718.73 1128.39C714.217 1139.39 699.495 1152.78 707.012 1166.21C710.08 1171.7 715.414 1176.64 718.245 1182.43" stroke="#BECCED"/>
<path d="M399.753 961.51C401.336 961.207 403 961.19 404.502 960.605C408.452 959.065 411.895 956.323 415.93 955.018C427.795 951.181 447.12 966.986 457.602 960.133C460.819 958.03 460.63 952.628 463.376 950.704C466.789 948.312 474.668 943.586 478.622 942.308C489.639 938.745 505.4 947.512 520.337 942.682C521.653 942.257 523.956 936.309 525.145 935.14C529.271 931.088 533.039 930.81 537.53 928.614C538.093 928.34 537.374 923.723 537.581 922.926C538.294 920.179 539.508 916.841 540.502 914.42C543.971 905.968 548.664 896.798 554.005 888.942C556.674 885.014 563.147 883.912 565.458 880.512C569.886 873.997 565.939 865.005 576.117 855.008" stroke="#BECCED"/>
<path d="M475.824 1042.79C476.475 1040.58 476.409 1038.01 477.779 1036.17C482.587 1029.68 492.923 1032.57 497.765 1027.81C503.66 1022.02 505.061 1013.13 511.226 1007.08C517.655 1000.76 531.695 1007.64 537.823 1001.63C548.214 991.42 541.66 981.749 559.807 981.912C566.422 981.972 584.473 980.423 584.542 972.653" stroke="#BECCED"/>
<path d="M520.362 939.841C532.71 940.899 540.273 951.397 552.495 951.507" stroke="#BECCED"/>
<path d="M540.519 912.528C545.072 910.9 549.771 908.262 554.774 908.863C563.022 909.856 566.492 916.056 573.651 918.514C581.621 921.25 591.906 916.857 600.188 919.7C607.088 922.069 613.604 925.557 620.978 927.471" stroke="#BECCED"/>
<path d="M566.432 877.678C579.063 871.777 590.603 877.895 603.407 878.01" stroke="#BECCED"/>
<path d="M518.07 878.192C511.421 889.423 521.388 902.439 515.859 913.253C514.519 915.874 511.048 918.034 510.103 920.786C505.138 935.247 514.181 930.875 500.41 944.401C503.047 955.502 516.952 952.885 522.071 960.714C524.598 964.58 523.154 970.059 525.744 974.02C526.871 975.744 533.1 975.034 535.216 975.053" stroke="#BECCED"/>
<path d="M476.134 902.465C481.653 905.287 471.323 934.476 473.881 942.265C469.811 925.307 464.638 915.318 448.572 909.803" stroke="#BECCED"/>
<path d="M459.516 958.26C472.707 955.529 478.767 966.746 483.064 975.537" stroke="#BECCED"/>
<path d="M526.508 1100.12C523.385 1095.99 519.288 1092.43 517.138 1087.71C516.665 1086.68 519.186 1086.64 519.999 1085.84C522.041 1083.84 520.528 1080.14 521.024 1077.32C523.925 1060.83 530.526 1040.74 542.316 1029.16C547.726 1023.84 562.347 1019.75 565.231 1011.35C566.566 1007.46 567.002 1004.16 569.126 1000.01" stroke="#BECCED"/>
<path d="M593.632 1016.35C617.906 1010.01 640.454 1008.96 663.003 998.956" stroke="#BECCED"/>
<path d="M618.596 981.487C621.697 987.83 619.734 1000.46 624.046 1008.08C625.471 1021.77 619.381 1024.05 609.638 1028.81C603.791 1031.67 602.809 1039.92 600.004 1045.79" stroke="#BECCED"/>
<path d="M663.644 1033.09C671.048 1006.37 686.475 1026.02 702.677 1015.43" stroke="#BECCED"/>
<path d="M754.685 1031.07C760.772 1028.73 767.057 1027.01 773.672 1028.39C783.833 1030.52 800.423 1033.74 810.621 1031.57C837.608 1025.83 840.089 991.396 816.777 979.478" stroke="#BECCED"/>
<path d="M825.867 1023.17C839.699 1019.23 843.862 1030.62 853.267 1033.85" stroke="#BECCED"/>
<path d="M826.636 1043.09C816.261 1043 811.049 1034.11 801.132 1032.43C806.091 1024 801.936 1010.97 808.972 1004.06" stroke="#BECCED"/>
<path d="M801.132 1032.43C776.078 1022.05 793.193 1019.09 786.21 1004.8" stroke="#BECCED"/>
<path d="M786.397 983.943C786.289 995.967 760.21 987.617 754.061 995.03C743.99 996.63 737.335 988.243 727.574 988.156" stroke="#BECCED"/>
<path d="M282.018 662.749C285.971 645.753 276.117 612.82 283.545 598.292C286.469 592.572 292.865 587.641 295.067 582.277C297.769 575.695 299.613 570.443 303.761 564.341C307.389 559.004 316.97 558.622 321.859 555.022C326.826 551.367 328.017 545.028 331.476 539.939C333.072 537.592 339.775 536.034 341 535.284C343.831 533.55 360.844 511.375 363.061 507.039C365.81 501.661 364.308 495.38 367.954 490.017C372.175 483.808 365.538 471.39 364.383 465.334C362.942 457.777 369.796 446.735 367.449 440.711C366.042 437.101 361.239 435.443 359.941 432.11C359.276 430.405 357.6 418.615 358.181 416.925C360.513 410.131 362.687 411.23 365.859 406.564C371.358 398.474 380.843 374.466 383.298 365.004" stroke="#BECCED"/>
<path d="M476.338 351.619C483.205 353.973 475.925 358.803 477.192 362.056C482.455 375.563 489.604 388.096 492.952 402.018C494.426 408.148 489.274 416.862 488.025 422.832C485.758 433.659 492.429 443.428 496.302 451.349C498.221 455.276 495.692 462.13 497.114 466.526C499.256 473.149 508.83 484.542 507.33 490.321C504.896 499.696 496.921 504.019 493.853 512.954C491.445 519.967 494.566 529.428 492.692 536.647C490.177 546.336 487.459 571.856 479.984 579.198C476.076 583.036 468.362 594.789 463.705 597.066C455.864 600.898 450.869 604.975 444.616 611.116C439.574 616.068 440.891 626.869 435.905 630.948C428.834 636.733 408.373 641.681 404.474 646.784C398.8 654.209 408.132 667.622 400.426 675.191C396.764 678.787 392.049 678.342 387.102 680.76C375.859 686.255 368.705 695.318 363.17 706.144C370.074 717.731 380.012 726.45 386.592 737.642C390.545 744.366 393.438 753.94 395.86 761.428C401.817 779.849 425.884 785.4 443.051 785.554" stroke="#BECCED"/>
<path d="M393.963 761.411C409.71 763.948 427.368 765.733 442.323 760.897" stroke="#BECCED"/>
<path d="M303.705 676.219C309.53 668.169 318.825 661.728 321.931 652.68C323.638 647.712 321.461 640.8 322.085 635.616C323.936 620.217 326.133 599.691 337.679 588.35C345.469 580.7 358.607 575.297 367.24 569.653C375.443 564.291 388.892 568.467 398.56 566.142C410.402 563.294 423.332 555.284 432.861 547.488C445.068 537.5 443.1 516.989 451.257 504.988" stroke="#BECCED"/>
<path d="M297.248 444.82C295.425 450.531 293.106 456.083 291.407 461.834C288.034 473.249 282.31 484.571 275.948 493.93C271.153 500.985 285.385 513.792 278.554 520.501C274.53 524.453 264.803 529.429 262.301 535.525C259.539 542.254 263.558 553.113 262.08 560.174C261.054 565.072 256.093 575.524 259.057 580.057C265.935 590.577 281.707 591.812 281.572 606.806" stroke="#BECCED"/>
<path d="M155.312 729.876C162.988 730.855 170.378 725.621 178.092 727.236C185.703 728.829 192.021 737.214 198.83 740.695C204.573 743.631 212.834 741.394 218.706 744.666C226.145 748.81 231.945 756.196 239.427 760.022C252.747 766.832 258.726 759.483 268.673 776.402" stroke="#BECCED"/>
<path d="M230.015 752.353C230.624 754.886 231.13 757.447 231.843 759.954C233.427 765.523 237.594 770.592 238.335 776.13C239.443 784.416 236.487 793.8 239.053 801.735C240.834 807.241 244.797 811.701 246.502 816.972" stroke="#BECCED"/>
<path d="M346.971 820.72C327.947 820.549 317.222 825.922 306.982 839.323C305.148 841.723 306.629 843.849 303.139 844.977C294.582 847.744 275.74 852.154 269.837 857.952C261.021 866.61 271.038 883.863 261.937 892.961C262.228 895.808 262.273 898.691 262.809 901.502C263.757 906.471 268.541 910.659 266.465 916.704C264.556 922.263 257.057 927.737 258.719 934.649C261.969 948.161 271.858 941.173 274.7 949.962C276.913 956.805 268.452 979.498 269.594 990.685C271.495 1009.32 277.854 1033 272.833 1052.34C270.623 1060.86 265.74 1070.36 268.794 1079.8C268.809 1079.84 280.628 1096.94 281.897 1098.88C285.775 1104.81 280.286 1128.41 285.332 1138.73C289.241 1146.73 274.842 1165.36 281.242 1171.88C283.227 1173.9 286.399 1180.23 288.741 1181.43C296.277 1185.28 316.105 1194.93 320.797 1201.62C324.863 1207.43 326.175 1213.59 329.168 1219.71C321.767 1246.67 347.778 1231.46 350.787 1240.77C352.016 1244.57 350.374 1249.23 351.624 1253.1C353.877 1260.06 360.095 1269.38 364.71 1274.07C367.258 1276.67 375.188 1275.29 378.897 1277.99C390.933 1286.76 397.04 1296.92 413.908 1285.89C416.965 1283.9 424.307 1284.11 428.163 1282.23" stroke="#BECCED"/>
<path d="M101.334 1039.43C105.667 1038.56 111.587 1041.28 115.555 1039.55C122.28 1036.64 146.109 1016.13 152.683 1022.82C155.364 1025.55 158.291 1034.48 163.018 1033.34C167.647 1032.23 170.05 1026.64 174.472 1024.91C184.653 1020.95 194.189 1014.5 204.929 1011.91C212.867 1010.01 217.986 1015.73 223.831 1018.72C232.655 1023.23 246.666 1015.73 255.101 1020.9C263.149 1025.82 267.869 1034.85 273.884 1040.98" stroke="#BECCED"/>
<path d="M275.555 960.394C275.1 1002.13 301.492 986.8 315.957 1001.53" stroke="#BECCED"/>
<path d="M68.7338 868.469C71.5476 875.363 75.9494 885.307 73.253 893.16C67.7222 909.268 56.4496 916.709 52.952 936.591C50.2253 952.091 55.9589 961.478 60.1962 974.581C63.9921 986.318 55.9289 1002.63 50.3752 1012.42C47.1648 1018.07 54.1323 1026.15 53.0407 1032.35C49.9055 1050.17 11.7297 1079.27 31.5789 1099.47" stroke="#BECCED"/>
<path d="M10.9987 962.763C43.2954 966.313 39.4517 954.115 53.9345 932.809" stroke="#BECCED"/>
<path d="M353.704 915.588C358.981 910.642 361.329 906.474 362.382 899.548C363.919 889.438 376.363 867.299 387.355 863.744C391.546 862.388 397.837 862.546 401.61 860.08C407.082 856.502 409.851 850.358 413.123 845.013C415.489 841.15 423.104 826.306 420.887 825.173" stroke="#BECCED"/>
<path d="M399.753 961.51C400.532 987.009 391.286 1007.73 367.982 1015.27" stroke="#BECCED"/>
<path d="M426.881 1002.53C425.152 1007.92 426.663 1013.32 424.84 1018.63C423.189 1023.44 418.148 1025.67 415.257 1029.92C409.206 1038.82 411.261 1052.56 411.167 1063.07" stroke="#BECCED"/>
<path d="M155.311 729.876C160.557 712.908 144.157 715.715 138.458 706.022C135.718 701.36 137.161 698.286 131.907 696.482" stroke="#BECCED"/>
<path d="M194.465 698.941C194.087 698.499 192.429 693.661 190.724 693.219C174.915 689.116 165.456 672.425 158.795 658.8C156.479 654.063 158.962 648.003 156.087 643.606" stroke="#BECCED"/>
<path d="M229.697 682.189C227.455 676.144 234.737 669.908 233.65 664.211C231.385 652.331 218.81 646.936 216.832 636.564C216.37 634.144 214.115 596.469 214.354 595.774C216.511 589.49 218.238 585.536 218.299 578.743" stroke="#BECCED"/>
<path d="M194.463 698.939C197.996 692.65 202.228 686.705 205.062 680.072C207.876 673.485 196.108 673.826 193.762 671.437C190.254 667.866 192.971 653.926 193.018 648.676C193.085 641.199 204.368 612.75 191.445 612.634" stroke="#BECCED"/>
<path d="M135.99 664.286C146.252 672.499 159.56 673.012 170.958 676.925" stroke="#BECCED"/>
<path d="M174.186 634.288C184.444 639.436 188.377 656.56 192.867 665.743" stroke="#BECCED"/>
<path d="M229.695 682.191C256.71 648.415 233.215 643.56 237.943 608.312" stroke="#BECCED"/>
<path d="M255.847 620.795C272.711 623.677 275.403 635.81 283.103 647.587C284.407 649.581 281.968 653.953 283.026 656.119C284.592 659.321 287.129 662.793 282.019 662.746" stroke="#BECCED"/>
<path d="M333.796 387.315C322.457 414.714 348.832 415.06 362.812 429.292C366.354 432.898 366.296 438.351 368.381 442.615" stroke="#BECCED"/>
<path d="M369.004 478.651C365.669 472.076 369.967 464.549 374.863 459.741C385.608 449.188 406.607 451.416 417.722 438.319C425.291 429.401 418.427 420.176 422.701 411.817C425.864 405.629 431.307 400.092 434.222 395.802" stroke="#BECCED"/>
<path d="M329.364 458.383C331.881 459.67 334.643 460.56 336.914 462.243C342.911 466.687 343.047 476.807 350.026 480.375C353.576 482.19 363.203 480.493 367.091 480.528C368.671 480.542 370.844 484.986 370.858 483.406C370.873 481.704 369.622 480.235 369.004 478.649" stroke="#BECCED"/>
<path d="M315.726 499.026C321.433 512.966 342.128 515.257 341.974 532.446" stroke="#BECCED"/>
<path d="M295.423 542.462C298.716 529.722 315.96 571.023 309.449 564.394C302.855 557.681 347.069 568.187 350.199 566.656" stroke="#BECCED"/>
<path d="M406.545 521.649C384.487 521.451 384.522 504.585 361.165 507.02C370.043 502.68 363.927 506.165 371.653 500.478C393.329 484.523 405.482 497.156 424.865 487.681" stroke="#BECCED"/>
<path d="M413.897 442.076C431.293 447.29 445.814 447.375 458.524 434.892" stroke="#BECCED"/>
<path d="M369.736 397.119C385.986 398.372 396.299 398.269 405.882 384.17" stroke="#BECCED"/>
<path d="M332.914 591.152C355.207 599.158 370.437 614.85 397.221 609.743" stroke="#BECCED"/>
<path d="M324.083 624.251C331.806 620.2 340.211 618.708 348.784 618.785" stroke="#BECCED"/>
<path d="M319.045 657.391C332.04 643.608 358.427 661.936 371.265 649.326" stroke="#BECCED"/>
<path d="M402.475 658.141C433.816 656.637 439.921 685.262 447.532 708.795C448.969 713.239 450.588 713.331 454.117 714.543C465.741 718.534 461.488 738.453 461.412 746.844" stroke="#BECCED"/>
<path d="M453.417 687.043C455.203 675.363 447.405 657.819 452.826 647.217" stroke="#BECCED"/>
<path d="M467.355 401.788C483.14 401.845 481.365 419.878 488.931 427.581" stroke="#BECCED"/>
<path d="M480.928 473.968C489.888 477.652 498.782 491.876 498.686 502.571" stroke="#BECCED"/>
<path d="M493.891 402.977C500.28 400.706 499.117 387.68 504.482 385.058C517.946 378.476 521.111 362.476 525.663 349.219" stroke="#BECCED"/>
<path d="M303.705 676.22C307.828 696.241 314.606 726.891 289.904 734.879" stroke="#BECCED"/>
<path d="M129.11 796.955C154.233 797.822 168.693 850.802 184.519 856.235" stroke="#BECCED"/>
<path d="M163.891 830.449C182.381 829.341 207.67 838.194 222.74 823.393" stroke="#BECCED"/>
<path d="M143.31 905.167C153.617 918.386 152.466 938.536 148.564 953.568" stroke="#BECCED"/>
<path d="M166.054 906.321C178.968 915.788 178.198 926.592 178.073 940.561" stroke="#BECCED"/>
<path d="M186.066 895.123C184.951 928.242 183.8 922.557 206.609 930.387" stroke="#BECCED"/>
<path d="M272.707 855.133C279.202 843.331 283.339 832.649 283.46 819.202" stroke="#BECCED"/>
<path d="M475.824 1042.78C472.495 1039.61 476.302 1031.59 475.012 1027.6C474.339 1025.52 470.293 1024.71 469.357 1023.76C465.206 1019.53 470.833 998.782 467.742 992.459" stroke="#BECCED"/>
</g>
<defs>
<filter id="filter0_f" x="2.50816" y="-1057.41" width="1765.59" height="2831.38" filterUnits="userSpaceOnUse" color-interpolation-filters="sRGB">
<feFlood flood-opacity="0" result="BackgroundImageFix"/>
<feBlend mode="normal" in="SourceGraphic" in2="BackgroundImageFix" result="shape"/>
<feGaussianBlur stdDeviation="0.00202331" result="effect1_foregroundBlur"/>
</filter>
</defs>
</svg>
