<svg width="380" height="476" viewBox="0 0 380 476" fill="none" xmlns="http://www.w3.org/2000/svg">
<g filter="url(#filter0_f)">
<path d="M27.9207 33.7976C33.5102 35.7885 46.4399 35.5863 49.2418 45.7658C50.6131 50.7467 53.7492 37.7802 53.7626 36.2842C53.8562 25.8526 53.2319 17.4627 58.2656 8.1311C67.2164 -8.46236 63.7986 19.4581 70.221 19.5158C83.5418 19.6353 71.5918 34.8933 65.5605 37.5174C60.6018 39.6748 59.2841 46.7936 57.8788 51.2312C55.9573 57.2973 53.9457 61.2007 50.9925 66.7075C48.3822 71.5727 42.5036 72.9127 43.321 79.0433C44.0692 84.6614 56.4202 81.7906 60.0895 83.1405C64.1304 84.6286 68.6696 84.604 72.4325 86.3214C78.6025 89.1392 80.4481 89.6426 74.602 95.113C70.0288 99.3915 63.1507 101.285 67.7416 107.707C72.1973 113.938 72.8632 118.632 75.7025 125.571C78.6843 132.853 90.311 151.276 98.4318 140.999C101.959 136.534 104.946 142.564 107.006 146.152C109.39 150.299 116.123 149.616 120.221 149.653C130.038 149.741 142.058 144.928 147.334 135.862C151.651 128.442 148.329 112.132 141.352 106.3C137.005 102.669 129.152 101.026 129.714 94.2294C130.22 88.138 143.071 83.2868 145.869 76.331C149.328 67.7291 157.507 66.2706 151.974 57.4637C149.462 53.4671 141.34 51.9867 141.387 46.656C141.483 35.9716 152.484 32.5514 158.698 25.072C165.285 17.1451 168.799 29.1684 171.875 32.8329C176.255 38.0537 178.747 46.6036 185.472 49.3695C189.263 50.9312 192.678 51.2906 195.549 54.2221C197.834 56.5562 197.838 53.522 199.321 51.3734C203.63 45.1412 197.962 17.6385 212.439 30.9423C220.143 38.0219 224.887 37.405 234.596 33.3958C240.478 30.9685 244.296 26.2469 249.434 22.8795C253.538 20.1876 258.359 18.781 261.996 15.5982C263.788 14.0297 273.586 22.8223 275.974 24.1818C279.934 26.434 284.965 26.3148 289.505 27.1857C294.421 28.1275 301.005 29.8934 302.236 35.6949C302.827 38.4816 300.522 46.8516 302.746 48.6689C312.948 57.0057 293.362 66.0444 290.964 73.6233C290.04 76.5355 286.752 83.4048 288.974 86.3241C291.602 89.7739 294.11 93.0668 296.755 96.542C302.518 104.114 311.068 106.989 301.566 117.448C295.298 124.347 289.365 139.305 300.2 144.251C304.651 146.282 315.861 139.981 318.205 142.971C321.024 146.573 327.274 147.691 331.075 149.853C339.244 154.501 346.191 157.288 346.09 168.596C345.991 179.62 343.853 190.079 338.502 199.541C336.01 203.943 334.48 209.141 334.435 214.164C334.414 216.42 334.394 218.674 334.374 220.931C334.341 224.633 335.726 222.897 338.279 224.348C344.135 227.679 343.961 221.266 348.05 228.382C350.378 232.432 360.789 231.881 364.638 231.915C367.555 231.942 374.705 230.935 375.795 234.898C376.391 237.061 374.524 246.642 372.864 248.277C367.357 253.7 351.724 243.077 345.422 243.02C341.509 242.985 334.442 241.554 330.801 243.14C325.537 245.43 326.827 247.782 323.727 251.596C319.691 256.564 315.943 269.588 315.886 276.023C315.797 285.873 311.239 292.444 311.149 302.482C311.085 309.603 320.192 303.168 324.093 301.471C329.225 299.237 334.45 298.121 338.709 301.602C347.451 308.743 323.887 322.273 319.419 327.93C313.089 335.939 307.343 342.69 302.583 352.024C300.282 356.538 301.473 361.399 298.777 365.524C295.491 370.547 294.862 374.408 292.465 379.688C290.322 384.406 285.92 389.727 285.582 394.726C285.294 398.969 279.894 401.837 279.857 405.952C279.811 411.123 273.837 416.339 272.097 421.419C270.208 426.935 266.479 431.227 266.081 437.404C265.782 442.067 268.178 462.232 263.11 462.187C253.909 462.104 245.892 469.928 236.551 469.844C231.728 469.801 227.657 472.891 222.539 471.91C215.996 470.656 220.753 461.478 216.975 458.391C212.402 454.654 212.101 437.516 212.152 431.783C212.209 425.47 212.484 423.001 205.481 423.328C200.151 423.577 195.292 425.491 189.468 425.439C184.912 425.398 176.05 425.255 172.816 429.236C170.231 432.418 161.252 430.825 157.619 430.792C145.721 430.685 131.904 431.13 121.113 426.204C114.347 423.115 109.216 424.89 104.321 417.658C99.3504 410.321 91.7815 403.015 84.2524 398.307C74.6845 392.326 69.0763 381.383 57.9439 378.085C44.756 374.178 63.4817 352.729 67.8488 346.284C70.6485 342.154 76.9234 337.735 76.9702 332.52C77.0272 326.178 77.2319 322.145 79.864 316.256C80.7994 314.164 82.4705 310.636 84.5482 309.471C87.2633 307.946 87.0787 302.69 88.0071 299.978C90.2186 293.52 94.9147 290.102 100.49 287.622C102.796 286.595 104.149 286.11 106.626 285.985C109.931 285.821 102.235 278.676 101.326 278.044C100.737 277.636 83.9265 269.324 92.1608 268.941C98.6391 268.637 102.803 268.868 108.547 266.831C116.134 264.143 104.865 258.869 101.881 257.751C90.689 253.554 79.2401 255.936 75.2781 242.6C71.3794 229.479 65.506 218.038 55.5932 208.216C48.2495 200.937 31.3076 193.631 41.782 181.026C48.5626 172.864 48.1176 164.213 48.2035 154.645C48.2442 150.107 45.7818 142.02 42.6648 138.307C38.9494 133.88 34.7407 133.948 32.1363 128.063C26.3388 114.961 24.4033 98.8809 17.3293 86.2041C15.3654 82.6844 0.889014 61.7464 9.05179 61.8196C11.2242 61.8391 27.9732 68.3342 28.6948 65.8816C29.8728 61.8865 27.3773 52.7865 23.7718 50.6744C16.1331 46.2082 7.55583 47.4777 7.66001 35.8704C7.70908 30.4029 16.0932 26.9445 20.332 30.0948C22.7246 31.8736 30.1127 31.4025 31.2941 33.8279" stroke="#FFFFF8" stroke-width="4" stroke-linecap="round" stroke-linejoin="round"/>
</g>
<defs>
<filter id="filter0_f" x="0.916869" y="0.344603" width="379.077" height="475.115" filterUnits="userSpaceOnUse" color-interpolation-filters="sRGB">
<feFlood flood-opacity="0" result="BackgroundImageFix"/>
<feBlend mode="normal" in="SourceGraphic" in2="BackgroundImageFix" result="shape"/>
<feGaussianBlur stdDeviation="6.16224e-05" result="effect1_foregroundBlur"/>
</filter>
</defs>
</svg>